<mxfile host="Electron" modified="2024-02-13T23:17:03.108Z" agent="Mozilla/5.0 (Windows NT 10.0; Win64; x64) AppleWebKit/537.36 (KHTML, like Gecko) draw.io/23.0.2 Chrome/120.0.6099.109 Electron/28.1.0 Safari/537.36" etag="xkutZDPNHLKyPyZHsJ_t" version="23.0.2" type="device">
  <diagram name="Page-1" id="4fc8d65c-f3f6-feb3-4d1c-02f59d9f9886">
    <mxGraphModel dx="1450" dy="629" grid="0" gridSize="10" guides="0" tooltips="1" connect="0" arrows="0" fold="1" page="0" pageScale="1" pageWidth="1169" pageHeight="827" background="none" math="0" shadow="0">
      <root>
        <mxCell id="0" />
        <mxCell id="1" parent="0" />
        <mxCell id="2" value="Iniciar Sesión" style="whiteSpace=wrap;strokeWidth=2;fontSize=14;fontFamily=Verdana;fontStyle=1" parent="1" vertex="1">
          <mxGeometry x="27" y="127" width="132.46" height="60" as="geometry" />
        </mxCell>
        <mxCell id="5" value="Plataforma" style="whiteSpace=wrap;strokeWidth=2;fontSize=14;fontFamily=Verdana;fontStyle=0" parent="1" vertex="1">
          <mxGeometry x="-104.00166666666676" y="550" width="120" height="60" as="geometry" />
        </mxCell>
        <mxCell id="8" value="Sistema de alquileres" style="whiteSpace=wrap;strokeWidth=3;fontSize=13;fontFamily=Verdana;" parent="1" vertex="1">
          <mxGeometry x="1366" y="355" width="120" height="60" as="geometry" />
        </mxCell>
        <mxCell id="9" value="" style="edgeStyle=none;strokeWidth=4;fontSize=13;fontFamily=Verdana;" parent="1" target="8" edge="1">
          <mxGeometry width="100" height="100" relative="1" as="geometry">
            <mxPoint x="209" y="376" as="sourcePoint" />
            <mxPoint x="329" y="326" as="targetPoint" />
          </mxGeometry>
        </mxCell>
        <mxCell id="12" value="" style="edgeStyle=none;exitX=0.5;exitY=1;strokeWidth=3;fontSize=13;fontFamily=Verdana;" parent="1" source="2" edge="1">
          <mxGeometry width="100" height="100" relative="1" as="geometry">
            <mxPoint x="185.45833333333323" y="286" as="sourcePoint" />
            <mxPoint x="245.45833333333323" y="376" as="targetPoint" />
          </mxGeometry>
        </mxCell>
        <mxCell id="15" value="" style="edgeStyle=none;exitX=0.503;exitY=-0.012;strokeWidth=3;exitDx=0;exitDy=0;exitPerimeter=0;fontSize=13;fontFamily=Verdana;" parent="1" source="5" edge="1">
          <mxGeometry width="100" height="100" relative="1" as="geometry">
            <mxPoint x="185.45833333333323" y="496" as="sourcePoint" />
            <mxPoint x="245.45833333333323" y="376" as="targetPoint" />
          </mxGeometry>
        </mxCell>
        <mxCell id="16" value="" style="edgeStyle=none;endArrow=none;strokeWidth=2;fontSize=13;fontFamily=Verdana;" parent="1" source="114" edge="1">
          <mxGeometry width="100" height="100" relative="1" as="geometry">
            <mxPoint x="-77.48166666666677" y="236.47000000000003" as="sourcePoint" />
            <mxPoint x="131" y="234" as="targetPoint" />
          </mxGeometry>
        </mxCell>
        <mxCell id="19" value="" style="edgeStyle=none;endArrow=none;strokeWidth=2;entryX=-0.057;entryY=0.486;entryDx=0;entryDy=0;entryPerimeter=0;fontSize=13;fontFamily=Verdana;" parent="1" target="137" edge="1">
          <mxGeometry width="100" height="100" relative="1" as="geometry">
            <mxPoint x="116.51833333333323" y="234.47000000000003" as="sourcePoint" />
            <mxPoint x="176.51833333333323" y="234.47000000000003" as="targetPoint" />
          </mxGeometry>
        </mxCell>
        <mxCell id="27" value="" style="edgeStyle=none;endArrow=none;strokeWidth=2;exitX=1.047;exitY=0.452;exitDx=0;exitDy=0;exitPerimeter=0;fontSize=13;fontFamily=Verdana;" parent="1" source="120" edge="1">
          <mxGeometry width="100" height="100" relative="1" as="geometry">
            <mxPoint x="-76.00328000000005" y="478.76" as="sourcePoint" />
            <mxPoint x="77" y="475" as="targetPoint" />
          </mxGeometry>
        </mxCell>
        <mxCell id="38" value="" style="edgeStyle=none;endArrow=none;exitX=0.533;exitY=1.062;exitDx=0;exitDy=0;exitPerimeter=0;fontSize=13;fontFamily=Verdana;" parent="1" source="122" edge="1">
          <mxGeometry width="100" height="100" relative="1" as="geometry">
            <mxPoint x="-53" y="256" as="sourcePoint" />
            <mxPoint x="35" y="235" as="targetPoint" />
          </mxGeometry>
        </mxCell>
        <mxCell id="39" value="" style="edgeStyle=none;endArrow=none;exitX=0.512;exitY=-0.13;exitDx=0;exitDy=0;exitPerimeter=0;fontSize=13;fontFamily=Verdana;" parent="1" source="121" edge="1">
          <mxGeometry width="100" height="100" relative="1" as="geometry">
            <mxPoint x="-99.44499999999994" y="255.67200000000003" as="sourcePoint" />
            <mxPoint x="-71.21166666666676" y="237.47000000000003" as="targetPoint" />
          </mxGeometry>
        </mxCell>
        <mxCell id="114" value="Autenticación&#xa;de usuarios" style="text;spacingTop=-5;fontSize=13;align=center;verticalAlign=middle;points=[];fontStyle=1;fontFamily=Verdana;" parent="1" vertex="1">
          <mxGeometry x="-212" y="216" width="107.46" height="38" as="geometry" />
        </mxCell>
        <mxCell id="120" value="Interfaz web" style="text;spacingTop=-5;fontSize=13;align=center;verticalAlign=middle;points=[];fontStyle=1;fontFamily=Verdana;" parent="1" vertex="1">
          <mxGeometry x="-230" y="463" width="108.46" height="25" as="geometry" />
        </mxCell>
        <mxCell id="121" value="Validación de&#xa;credenciales" style="text;spacingTop=-5;fontSize=13;align=center;verticalAlign=middle;points=[];fontFamily=Verdana;" parent="1" vertex="1">
          <mxGeometry x="-80" y="274" width="96" height="44" as="geometry" />
        </mxCell>
        <mxCell id="122" value="Control de acceso&#xa;al sistema" style="text;spacingTop=-5;fontSize=13;align=center;verticalAlign=middle;points=[];fontFamily=Verdana;" parent="1" vertex="1">
          <mxGeometry x="-104" y="175" width="125" height="35" as="geometry" />
        </mxCell>
        <mxCell id="137" value="Recuperación&#xa;de contraseña" style="text;spacingTop=-5;fontSize=13;align=center;verticalAlign=middle;points=[];fontStyle=1;fontFamily=Verdana;" parent="1" vertex="1">
          <mxGeometry x="294" y="210" width="130" height="41" as="geometry" />
        </mxCell>
        <mxCell id="143" value="Solicitud de alquiler" style="whiteSpace=wrap;strokeWidth=2;fontSize=14;fontFamily=Verdana;fontStyle=0" parent="1" vertex="1">
          <mxGeometry x="509" y="110.99999999999994" width="120" height="60" as="geometry" />
        </mxCell>
        <mxCell id="145" value="" style="edgeStyle=none;exitX=0.5;exitY=1;strokeWidth=3;fontSize=13;fontFamily=Verdana;" parent="1" source="143" edge="1">
          <mxGeometry width="100" height="100" relative="1" as="geometry">
            <mxPoint x="600" y="294.9999999999999" as="sourcePoint" />
            <mxPoint x="658" y="379" as="targetPoint" />
          </mxGeometry>
        </mxCell>
        <mxCell id="146" value="" style="edgeStyle=none;exitX=0.493;exitY=0.002;strokeWidth=3;exitDx=0;exitDy=0;exitPerimeter=0;fontSize=13;fontFamily=Verdana;" parent="1" source="iAjT5SWpcd2ESqq7upP2-287" edge="1">
          <mxGeometry width="100" height="100" relative="1" as="geometry">
            <mxPoint x="600.0000000000001" y="504.99999999999994" as="sourcePoint" />
            <mxPoint x="660" y="384.99999999999994" as="targetPoint" />
          </mxGeometry>
        </mxCell>
        <mxCell id="147" value="" style="edgeStyle=none;endArrow=none;strokeWidth=2;exitX=1.032;exitY=0.507;exitDx=0;exitDy=0;exitPerimeter=0;entryX=-0.069;entryY=0.511;entryDx=0;entryDy=0;entryPerimeter=0;fontSize=13;fontFamily=Verdana;" parent="1" source="176" target="198" edge="1">
          <mxGeometry width="100" height="100" relative="1" as="geometry">
            <mxPoint x="499.0000000000001" y="284.9999999999999" as="sourcePoint" />
            <mxPoint x="606" y="290" as="targetPoint" />
          </mxGeometry>
        </mxCell>
        <mxCell id="159" value="" style="edgeStyle=none;endArrow=none;exitX=0.439;exitY=0.993;exitDx=0;exitDy=0;exitPerimeter=0;fontSize=13;fontFamily=Verdana;" parent="1" source="191" edge="1">
          <mxGeometry width="100" height="100" relative="1" as="geometry">
            <mxPoint x="528.9999999999999" y="304.9999999999998" as="sourcePoint" />
            <mxPoint x="524" y="285" as="targetPoint" />
          </mxGeometry>
        </mxCell>
        <mxCell id="160" value="" style="edgeStyle=none;endArrow=none;exitX=0.53;exitY=-0.108;exitDx=0;exitDy=0;exitPerimeter=0;fontSize=13;fontFamily=Verdana;" parent="1" source="190" edge="1">
          <mxGeometry width="100" height="100" relative="1" as="geometry">
            <mxPoint x="499.0000000000001" y="304.9999999999998" as="sourcePoint" />
            <mxPoint x="498" y="288" as="targetPoint" />
          </mxGeometry>
        </mxCell>
        <mxCell id="176" value="Selección&#xa;de equipo" style="text;spacingTop=-5;fontSize=13;align=center;verticalAlign=middle;points=[];fontStyle=1;fontFamily=Verdana;" parent="1" vertex="1">
          <mxGeometry x="356" y="276" width="76" height="28" as="geometry" />
        </mxCell>
        <mxCell id="190" value="Búsqueda por placa,&#xa;modelo o marca" style="text;spacingTop=-5;fontSize=13;align=center;verticalAlign=middle;points=[];fontFamily=Verdana;" parent="1" vertex="1">
          <mxGeometry x="455" y="313" width="132" height="37" as="geometry" />
        </mxCell>
        <mxCell id="191" value="Visualización de&#xa;información del equipo" style="text;spacingTop=-5;fontSize=13;align=center;verticalAlign=middle;points=[];fontFamily=Verdana;" parent="1" vertex="1">
          <mxGeometry x="437" y="229" width="149" height="30" as="geometry" />
        </mxCell>
        <mxCell id="198" value="Confirmación&#xa;de la solicitud" style="text;spacingTop=-5;fontSize=13;align=center;verticalAlign=middle;points=[];fontStyle=1;fontFamily=Verdana;" parent="1" vertex="1">
          <mxGeometry x="758" y="274" width="105" height="22" as="geometry" />
        </mxCell>
        <mxCell id="206" value="" style="edgeStyle=none;exitX=0.514;exitY=1.071;strokeWidth=3;exitDx=0;exitDy=0;exitPerimeter=0;fontSize=13;fontFamily=Verdana;" parent="1" source="iAjT5SWpcd2ESqq7upP2-303" edge="1">
          <mxGeometry width="100" height="100" relative="1" as="geometry">
            <mxPoint x="1054.833333333333" y="275.5277777777775" as="sourcePoint" />
            <mxPoint x="1113" y="380" as="targetPoint" />
          </mxGeometry>
        </mxCell>
        <mxCell id="207" value="" style="edgeStyle=none;exitX=0.493;exitY=-0.074;strokeWidth=3;exitDx=0;exitDy=0;exitPerimeter=0;fontSize=13;fontFamily=Verdana;" parent="1" source="iAjT5SWpcd2ESqq7upP2-295" edge="1">
          <mxGeometry width="100" height="100" relative="1" as="geometry">
            <mxPoint x="1054.8333333333333" y="505.52777777777754" as="sourcePoint" />
            <mxPoint x="845" y="386" as="targetPoint" />
          </mxGeometry>
        </mxCell>
        <mxCell id="iAjT5SWpcd2ESqq7upP2-274" value="" style="edgeStyle=none;endArrow=none;exitX=0.397;exitY=1.109;exitDx=0;exitDy=0;exitPerimeter=0;fontSize=13;fontFamily=Verdana;" parent="1" source="iAjT5SWpcd2ESqq7upP2-275" edge="1">
          <mxGeometry width="100" height="100" relative="1" as="geometry">
            <mxPoint x="192" y="190" as="sourcePoint" />
            <mxPoint x="178" y="234" as="targetPoint" />
          </mxGeometry>
        </mxCell>
        <mxCell id="iAjT5SWpcd2ESqq7upP2-275" value="Restablecimiento de&#xa;contraseña en caso de olvido" style="text;spacingTop=-5;fontSize=13;align=center;verticalAlign=middle;points=[];fontFamily=Verdana;" parent="1" vertex="1">
          <mxGeometry x="161" y="160" width="212" height="44" as="geometry" />
        </mxCell>
        <mxCell id="iAjT5SWpcd2ESqq7upP2-277" value="" style="edgeStyle=none;endArrow=none;exitX=0.486;exitY=1.139;exitDx=0;exitDy=0;exitPerimeter=0;fontSize=13;fontFamily=Verdana;" parent="1" source="iAjT5SWpcd2ESqq7upP2-278" edge="1">
          <mxGeometry width="100" height="100" relative="1" as="geometry">
            <mxPoint x="-85.05166666666678" y="504" as="sourcePoint" />
            <mxPoint x="11" y="473" as="targetPoint" />
          </mxGeometry>
        </mxCell>
        <mxCell id="iAjT5SWpcd2ESqq7upP2-278" value="Sitio web para la&#xa;gestión de alquileres" style="text;spacingTop=-5;fontSize=13;align=center;verticalAlign=middle;points=[];fontFamily=Verdana;" parent="1" vertex="1">
          <mxGeometry x="-76" y="404" width="144" height="36" as="geometry" />
        </mxCell>
        <mxCell id="iAjT5SWpcd2ESqq7upP2-281" value="" style="edgeStyle=none;endArrow=none;strokeWidth=2;fontSize=13;fontFamily=Verdana;exitX=-0.033;exitY=0.45;exitDx=0;exitDy=0;exitPerimeter=0;" parent="1" source="iAjT5SWpcd2ESqq7upP2-282" edge="1">
          <mxGeometry width="100" height="100" relative="1" as="geometry">
            <mxPoint x="225" y="503" as="sourcePoint" />
            <mxPoint x="81" y="478" as="targetPoint" />
          </mxGeometry>
        </mxCell>
        <mxCell id="iAjT5SWpcd2ESqq7upP2-282" value="Aplicación&#xa;móvil" style="text;spacingTop=-5;fontSize=13;align=center;verticalAlign=middle;points=[];fontStyle=1;fontFamily=Verdana;" parent="1" vertex="1">
          <mxGeometry x="238" y="464" width="80" height="38" as="geometry" />
        </mxCell>
        <mxCell id="iAjT5SWpcd2ESqq7upP2-285" value="" style="edgeStyle=none;endArrow=none;exitX=0.441;exitY=-0.009;exitDx=0;exitDy=0;exitPerimeter=0;fontSize=13;fontFamily=Verdana;" parent="1" source="iAjT5SWpcd2ESqq7upP2-286" edge="1">
          <mxGeometry width="100" height="100" relative="1" as="geometry">
            <mxPoint x="329.9483333333332" y="621" as="sourcePoint" />
            <mxPoint x="174" y="482" as="targetPoint" />
          </mxGeometry>
        </mxCell>
        <mxCell id="iAjT5SWpcd2ESqq7upP2-286" value="App para la gestión de&#xa;alquileres desde&#xa;dispositivos móviles" style="text;spacingTop=-5;fontSize=13;align=center;verticalAlign=middle;points=[];fontFamily=Verdana;" parent="1" vertex="1">
          <mxGeometry x="70" y="505" width="161" height="56" as="geometry" />
        </mxCell>
        <mxCell id="iAjT5SWpcd2ESqq7upP2-287" value="Solicitud de limpieza" style="whiteSpace=wrap;strokeWidth=2;fontSize=14;fontFamily=Verdana;fontStyle=0" parent="1" vertex="1">
          <mxGeometry x="443" y="504.99999999999994" width="120" height="60" as="geometry" />
        </mxCell>
        <mxCell id="iAjT5SWpcd2ESqq7upP2-288" value="" style="edgeStyle=none;endArrow=none;strokeWidth=2;exitX=1.031;exitY=0.479;exitDx=0;exitDy=0;exitPerimeter=0;fontSize=13;fontFamily=Verdana;" parent="1" source="iAjT5SWpcd2ESqq7upP2-291" edge="1">
          <mxGeometry width="100" height="100" relative="1" as="geometry">
            <mxPoint x="468.0000000000001" y="463.9999999999999" as="sourcePoint" />
            <mxPoint x="596" y="432" as="targetPoint" />
          </mxGeometry>
        </mxCell>
        <mxCell id="iAjT5SWpcd2ESqq7upP2-291" value="Notificación automática&#xa;al personal de limpieza" style="text;spacingTop=-5;fontSize=13;align=center;verticalAlign=middle;points=[];fontStyle=1;fontFamily=Verdana;" parent="1" vertex="1">
          <mxGeometry x="371" y="413" width="177" height="36" as="geometry" />
        </mxCell>
        <mxCell id="iAjT5SWpcd2ESqq7upP2-294" value="Programación de&#xa;la limpieza" style="text;spacingTop=-5;fontSize=13;align=center;verticalAlign=middle;points=[];fontStyle=1;fontFamily=Verdana;" parent="1" vertex="1">
          <mxGeometry x="353" y="456" width="130" height="25" as="geometry" />
        </mxCell>
        <mxCell id="iAjT5SWpcd2ESqq7upP2-295" value="Gestión de descuento" style="whiteSpace=wrap;strokeWidth=2;fontSize=14;fontFamily=Verdana;fontStyle=0" parent="1" vertex="1">
          <mxGeometry x="733" y="556" width="120" height="60" as="geometry" />
        </mxCell>
        <mxCell id="iAjT5SWpcd2ESqq7upP2-296" value="" style="edgeStyle=none;endArrow=none;strokeWidth=2;exitX=1.029;exitY=0.474;exitDx=0;exitDy=0;exitPerimeter=0;fontSize=13;fontFamily=Verdana;" parent="1" source="iAjT5SWpcd2ESqq7upP2-299" edge="1">
          <mxGeometry width="100" height="100" relative="1" as="geometry">
            <mxPoint x="742.0000000000001" y="429.9999999999999" as="sourcePoint" />
            <mxPoint x="822" y="452" as="targetPoint" />
          </mxGeometry>
        </mxCell>
        <mxCell id="iAjT5SWpcd2ESqq7upP2-298" value="" style="edgeStyle=none;endArrow=none;fontSize=13;fontFamily=Verdana;entryX=0.541;entryY=-0.196;entryDx=0;entryDy=0;entryPerimeter=0;" parent="1" target="iAjT5SWpcd2ESqq7upP2-300" edge="1">
          <mxGeometry width="100" height="100" relative="1" as="geometry">
            <mxPoint x="803" y="453" as="sourcePoint" />
            <mxPoint x="769" y="488" as="targetPoint" />
          </mxGeometry>
        </mxCell>
        <mxCell id="iAjT5SWpcd2ESqq7upP2-299" value="Aplicación automática&#xa;de descuentos" style="text;spacingTop=-5;fontSize=13;align=center;verticalAlign=middle;points=[];fontStyle=1;fontFamily=Verdana;" parent="1" vertex="1">
          <mxGeometry x="610" y="435" width="167" height="31" as="geometry" />
        </mxCell>
        <mxCell id="iAjT5SWpcd2ESqq7upP2-300" value="Cálculo del descuento&#xa;en la factura" style="text;spacingTop=-5;fontSize=13;align=center;verticalAlign=middle;points=[];fontFamily=Verdana;" parent="1" vertex="1">
          <mxGeometry x="644" y="498" width="149" height="38" as="geometry" />
        </mxCell>
        <mxCell id="iAjT5SWpcd2ESqq7upP2-303" value="Facturación de alquiler" style="whiteSpace=wrap;strokeWidth=2;fontSize=14;fontFamily=Verdana;fontStyle=0" parent="1" vertex="1">
          <mxGeometry x="1047" y="118" width="140" height="60" as="geometry" />
        </mxCell>
        <mxCell id="iAjT5SWpcd2ESqq7upP2-304" value="" style="edgeStyle=none;endArrow=none;strokeWidth=2;entryX=-0.029;entryY=0.528;entryDx=0;entryDy=0;entryPerimeter=0;fontSize=13;fontFamily=Verdana;" parent="1" target="iAjT5SWpcd2ESqq7upP2-310" edge="1">
          <mxGeometry width="100" height="100" relative="1" as="geometry">
            <mxPoint x="1119" y="210" as="sourcePoint" />
            <mxPoint x="1247" y="191" as="targetPoint" />
          </mxGeometry>
        </mxCell>
        <mxCell id="iAjT5SWpcd2ESqq7upP2-305" value="" style="edgeStyle=none;endArrow=none;exitX=0.505;exitY=0.968;exitDx=0;exitDy=0;exitPerimeter=0;fontSize=13;fontFamily=Verdana;" parent="1" source="iAjT5SWpcd2ESqq7upP2-309" edge="1">
          <mxGeometry width="100" height="100" relative="1" as="geometry">
            <mxPoint x="1073" y="251" as="sourcePoint" />
            <mxPoint x="1085" y="258" as="targetPoint" />
          </mxGeometry>
        </mxCell>
        <mxCell id="iAjT5SWpcd2ESqq7upP2-306" value="" style="edgeStyle=none;endArrow=none;exitX=0.532;exitY=-0.076;exitDx=0;exitDy=0;exitPerimeter=0;fontSize=13;fontFamily=Verdana;" parent="1" source="iAjT5SWpcd2ESqq7upP2-308" edge="1">
          <mxGeometry width="100" height="100" relative="1" as="geometry">
            <mxPoint x="1033" y="252" as="sourcePoint" />
            <mxPoint x="1071" y="262" as="targetPoint" />
          </mxGeometry>
        </mxCell>
        <mxCell id="iAjT5SWpcd2ESqq7upP2-307" value="Cálculo del&#xa;precio del alquiler" style="text;spacingTop=-5;fontSize=13;align=center;verticalAlign=middle;points=[];fontStyle=1;fontFamily=Verdana;" parent="1" vertex="1">
          <mxGeometry x="875" y="240" width="135" height="43" as="geometry" />
        </mxCell>
        <mxCell id="iAjT5SWpcd2ESqq7upP2-308" value="Aplicación de tarifas&#xa;y descuentos" style="text;spacingTop=-5;fontSize=13;align=center;verticalAlign=middle;points=[];fontFamily=Verdana;" parent="1" vertex="1">
          <mxGeometry x="944" y="297" width="132" height="40" as="geometry" />
        </mxCell>
        <mxCell id="iAjT5SWpcd2ESqq7upP2-309" value="Detalle de los&#xa;cargos en la factura" style="text;spacingTop=-5;fontSize=13;align=center;verticalAlign=middle;points=[];fontFamily=Verdana;" parent="1" vertex="1">
          <mxGeometry x="963" y="196" width="151" height="36" as="geometry" />
        </mxCell>
        <mxCell id="iAjT5SWpcd2ESqq7upP2-310" value="Generación de&#xa;la factura" style="text;spacingTop=-5;fontSize=13;align=center;verticalAlign=middle;points=[];fontStyle=1;fontFamily=Verdana;" parent="1" vertex="1">
          <mxGeometry x="1278" y="192" width="112" height="33.03" as="geometry" />
        </mxCell>
        <mxCell id="iAjT5SWpcd2ESqq7upP2-311" value="Resumen de la&#xa;solicitud con&#xa;todos los detalles" style="text;spacingTop=-5;fontSize=13;align=center;verticalAlign=middle;points=[];fontFamily=Verdana;" parent="1" vertex="1">
          <mxGeometry x="669" y="313" width="122" height="48" as="geometry" />
        </mxCell>
        <mxCell id="iAjT5SWpcd2ESqq7upP2-312" value="" style="edgeStyle=none;endArrow=none;exitX=0.48;exitY=-0.049;exitDx=0;exitDy=0;exitPerimeter=0;fontSize=13;fontFamily=Verdana;" parent="1" source="iAjT5SWpcd2ESqq7upP2-311" edge="1">
          <mxGeometry width="100" height="100" relative="1" as="geometry">
            <mxPoint x="697.9999999999999" y="306.9999999999998" as="sourcePoint" />
            <mxPoint x="661" y="288" as="targetPoint" />
          </mxGeometry>
        </mxCell>
        <mxCell id="iAjT5SWpcd2ESqq7upP2-313" value="Envío de la&#xa;solicitud al sistema" style="text;spacingTop=-5;fontSize=13;align=center;verticalAlign=middle;points=[];fontFamily=Verdana;" parent="1" vertex="1">
          <mxGeometry x="629" y="205" width="140" height="36" as="geometry" />
        </mxCell>
        <mxCell id="iAjT5SWpcd2ESqq7upP2-314" value="" style="edgeStyle=none;endArrow=none;exitX=0.503;exitY=1.037;exitDx=0;exitDy=0;exitPerimeter=0;fontSize=13;fontFamily=Verdana;" parent="1" source="iAjT5SWpcd2ESqq7upP2-313" edge="1">
          <mxGeometry width="100" height="100" relative="1" as="geometry">
            <mxPoint x="707.9999999999999" y="316.9999999999998" as="sourcePoint" />
            <mxPoint x="669" y="286" as="targetPoint" />
          </mxGeometry>
        </mxCell>
        <mxCell id="iAjT5SWpcd2ESqq7upP2-315" value="" style="edgeStyle=none;endArrow=none;strokeWidth=2;entryX=-0.056;entryY=0.537;entryDx=0;entryDy=0;entryPerimeter=0;fontSize=13;fontFamily=Verdana;" parent="1" target="iAjT5SWpcd2ESqq7upP2-316" edge="1">
          <mxGeometry width="100" height="100" relative="1" as="geometry">
            <mxPoint x="1118" y="301" as="sourcePoint" />
            <mxPoint x="1242" y="287" as="targetPoint" />
          </mxGeometry>
        </mxCell>
        <mxCell id="iAjT5SWpcd2ESqq7upP2-316" value="Realización&#xa;del pago" style="text;spacingTop=-5;fontSize=13;align=center;verticalAlign=middle;points=[];fontFamily=Verdana;fontStyle=1" parent="1" vertex="1">
          <mxGeometry x="1329" y="280" width="91" height="38" as="geometry" />
        </mxCell>
        <mxCell id="iAjT5SWpcd2ESqq7upP2-317" value="Envío de la factura al&#xa;cliente por&#xa;correo electrónico" style="text;spacingTop=-5;fontSize=13;align=center;verticalAlign=middle;points=[];fontFamily=Verdana;" parent="1" vertex="1">
          <mxGeometry x="1213" y="119" width="139" height="57" as="geometry" />
        </mxCell>
        <mxCell id="iAjT5SWpcd2ESqq7upP2-318" value="" style="edgeStyle=none;endArrow=none;exitX=0.488;exitY=1.036;exitDx=0;exitDy=0;exitPerimeter=0;fontSize=13;fontFamily=Verdana;" parent="1" source="iAjT5SWpcd2ESqq7upP2-317" edge="1">
          <mxGeometry width="100" height="100" relative="1" as="geometry">
            <mxPoint x="1161" y="206" as="sourcePoint" />
            <mxPoint x="1192" y="208" as="targetPoint" />
          </mxGeometry>
        </mxCell>
        <mxCell id="iAjT5SWpcd2ESqq7upP2-319" value="Confirmación del&#xa;pago al cliente" style="text;spacingTop=-5;fontSize=13;align=center;verticalAlign=middle;points=[];fontFamily=Verdana;" parent="1" vertex="1">
          <mxGeometry x="1159" y="327" width="114" height="35" as="geometry" />
        </mxCell>
        <mxCell id="iAjT5SWpcd2ESqq7upP2-320" value="" style="edgeStyle=none;endArrow=none;exitX=0.508;exitY=-0.101;exitDx=0;exitDy=0;exitPerimeter=0;fontSize=13;fontFamily=Verdana;" parent="1" source="iAjT5SWpcd2ESqq7upP2-319" edge="1">
          <mxGeometry width="100" height="100" relative="1" as="geometry">
            <mxPoint x="1133" y="317" as="sourcePoint" />
            <mxPoint x="1171" y="302" as="targetPoint" />
          </mxGeometry>
        </mxCell>
        <mxCell id="iAjT5SWpcd2ESqq7upP2-321" value="Permitir pago&#xa;en efectivo" style="text;spacingTop=-5;fontSize=13;align=center;verticalAlign=middle;points=[];fontFamily=Verdana;" parent="1" vertex="1">
          <mxGeometry x="1136" y="247" width="89" height="27" as="geometry" />
        </mxCell>
        <mxCell id="iAjT5SWpcd2ESqq7upP2-322" value="" style="edgeStyle=none;endArrow=none;exitX=0.487;exitY=1.022;exitDx=0;exitDy=0;exitPerimeter=0;fontSize=13;fontFamily=Verdana;" parent="1" source="iAjT5SWpcd2ESqq7upP2-321" edge="1">
          <mxGeometry width="100" height="100" relative="1" as="geometry">
            <mxPoint x="1225" y="249" as="sourcePoint" />
            <mxPoint x="1150" y="302" as="targetPoint" />
          </mxGeometry>
        </mxCell>
        <mxCell id="iAjT5SWpcd2ESqq7upP2-323" value="Permitir pago&#xa;en vía internet" style="text;spacingTop=-5;fontSize=13;align=center;verticalAlign=middle;points=[];fontFamily=Verdana;" parent="1" vertex="1">
          <mxGeometry x="1237" y="239" width="110" height="35" as="geometry" />
        </mxCell>
        <mxCell id="iAjT5SWpcd2ESqq7upP2-324" value="" style="edgeStyle=none;endArrow=none;exitX=0.487;exitY=1.022;exitDx=0;exitDy=0;exitPerimeter=0;fontSize=13;fontFamily=Verdana;" parent="1" source="iAjT5SWpcd2ESqq7upP2-323" edge="1">
          <mxGeometry width="100" height="100" relative="1" as="geometry">
            <mxPoint x="1271" y="250" as="sourcePoint" />
            <mxPoint x="1209" y="301" as="targetPoint" />
          </mxGeometry>
        </mxCell>
        <mxCell id="iAjT5SWpcd2ESqq7upP2-325" value="" style="edgeStyle=none;endArrow=none;strokeWidth=2;exitX=1.047;exitY=0.447;exitDx=0;exitDy=0;exitPerimeter=0;fontSize=13;fontFamily=Verdana;" parent="1" source="iAjT5SWpcd2ESqq7upP2-294" edge="1">
          <mxGeometry width="100" height="100" relative="1" as="geometry">
            <mxPoint x="484" y="471" as="sourcePoint" />
            <mxPoint x="549" y="468" as="targetPoint" />
          </mxGeometry>
        </mxCell>
        <mxCell id="iAjT5SWpcd2ESqq7upP2-326" value="Gestión de despacho" style="whiteSpace=wrap;strokeWidth=2;fontSize=14;fontFamily=Verdana;fontStyle=0" parent="1" vertex="1">
          <mxGeometry x="1037" y="524" width="129" height="60" as="geometry" />
        </mxCell>
        <mxCell id="iAjT5SWpcd2ESqq7upP2-327" value="" style="edgeStyle=none;endArrow=none;strokeWidth=2;exitX=1.032;exitY=0.507;exitDx=0;exitDy=0;exitPerimeter=0;entryX=-0.069;entryY=0.511;entryDx=0;entryDy=0;entryPerimeter=0;fontSize=13;fontFamily=Verdana;" parent="1" source="iAjT5SWpcd2ESqq7upP2-330" target="iAjT5SWpcd2ESqq7upP2-333" edge="1">
          <mxGeometry width="100" height="100" relative="1" as="geometry">
            <mxPoint x="1045" y="461.9999999999999" as="sourcePoint" />
            <mxPoint x="1152" y="467" as="targetPoint" />
          </mxGeometry>
        </mxCell>
        <mxCell id="iAjT5SWpcd2ESqq7upP2-328" value="" style="edgeStyle=none;endArrow=none;exitX=0.439;exitY=0.993;exitDx=0;exitDy=0;exitPerimeter=0;fontSize=13;fontFamily=Verdana;" parent="1" source="iAjT5SWpcd2ESqq7upP2-332" edge="1">
          <mxGeometry width="100" height="100" relative="1" as="geometry">
            <mxPoint x="1075" y="481.9999999999998" as="sourcePoint" />
            <mxPoint x="1070" y="462" as="targetPoint" />
          </mxGeometry>
        </mxCell>
        <mxCell id="iAjT5SWpcd2ESqq7upP2-329" value="" style="edgeStyle=none;endArrow=none;exitX=0.53;exitY=-0.108;exitDx=0;exitDy=0;exitPerimeter=0;fontSize=13;fontFamily=Verdana;" parent="1" source="iAjT5SWpcd2ESqq7upP2-331" edge="1">
          <mxGeometry width="100" height="100" relative="1" as="geometry">
            <mxPoint x="1045" y="481.9999999999998" as="sourcePoint" />
            <mxPoint x="1043" y="462" as="targetPoint" />
          </mxGeometry>
        </mxCell>
        <mxCell id="iAjT5SWpcd2ESqq7upP2-330" value="Preparación&#xa;del equipo" style="text;spacingTop=-5;fontSize=13;align=center;verticalAlign=middle;points=[];fontStyle=1;fontFamily=Verdana;" parent="1" vertex="1">
          <mxGeometry x="865" y="446" width="95" height="28" as="geometry" />
        </mxCell>
        <mxCell id="iAjT5SWpcd2ESqq7upP2-331" value="Alistamiento del&#xa;equipo para la entrega" style="text;spacingTop=-5;fontSize=13;align=center;verticalAlign=middle;points=[];fontFamily=Verdana;" parent="1" vertex="1">
          <mxGeometry x="904" y="489" width="154" height="35" as="geometry" />
        </mxCell>
        <mxCell id="iAjT5SWpcd2ESqq7upP2-332" value="Verificación del&#xa;estado del equipo" style="text;spacingTop=-5;fontSize=13;align=center;verticalAlign=middle;points=[];fontFamily=Verdana;" parent="1" vertex="1">
          <mxGeometry x="966" y="403" width="122" height="37" as="geometry" />
        </mxCell>
        <mxCell id="iAjT5SWpcd2ESqq7upP2-333" value="Entrega del equipo" style="text;spacingTop=-5;fontSize=13;align=center;verticalAlign=middle;points=[];fontStyle=1;fontFamily=Verdana;" parent="1" vertex="1">
          <mxGeometry x="1263" y="451" width="148" height="24" as="geometry" />
        </mxCell>
        <mxCell id="iAjT5SWpcd2ESqq7upP2-334" value="Coordinación con el&#xa;cliente para la fecha&#xa;y hora de la entrega" style="text;spacingTop=-5;fontSize=13;align=center;verticalAlign=middle;points=[];fontFamily=Verdana;" parent="1" vertex="1">
          <mxGeometry x="1181" y="495" width="143" height="55" as="geometry" />
        </mxCell>
        <mxCell id="iAjT5SWpcd2ESqq7upP2-335" value="" style="edgeStyle=none;endArrow=none;exitX=0.48;exitY=-0.049;exitDx=0;exitDy=0;exitPerimeter=0;fontSize=13;fontFamily=Verdana;" parent="1" source="iAjT5SWpcd2ESqq7upP2-334" edge="1">
          <mxGeometry width="100" height="100" relative="1" as="geometry">
            <mxPoint x="1244" y="483.9999999999998" as="sourcePoint" />
            <mxPoint x="1168" y="463" as="targetPoint" />
          </mxGeometry>
        </mxCell>
        <mxCell id="iAjT5SWpcd2ESqq7upP2-336" value="Entrega de manuales&#xa;y documentación" style="text;spacingTop=-5;fontSize=13;align=center;verticalAlign=middle;points=[];fontFamily=Verdana;" parent="1" vertex="1">
          <mxGeometry x="1149" y="400" width="142" height="39" as="geometry" />
        </mxCell>
        <mxCell id="iAjT5SWpcd2ESqq7upP2-337" value="" style="edgeStyle=none;endArrow=none;exitX=0.503;exitY=1.037;exitDx=0;exitDy=0;exitPerimeter=0;fontSize=13;fontFamily=Verdana;" parent="1" source="iAjT5SWpcd2ESqq7upP2-336" edge="1">
          <mxGeometry width="100" height="100" relative="1" as="geometry">
            <mxPoint x="1254" y="493.9999999999998" as="sourcePoint" />
            <mxPoint x="1192" y="463" as="targetPoint" />
          </mxGeometry>
        </mxCell>
        <mxCell id="iAjT5SWpcd2ESqq7upP2-338" value="" style="edgeStyle=none;exitX=0.462;exitY=-0.047;strokeWidth=3;exitDx=0;exitDy=0;exitPerimeter=0;fontSize=13;fontFamily=Verdana;" parent="1" source="iAjT5SWpcd2ESqq7upP2-326" edge="1">
          <mxGeometry width="100" height="100" relative="1" as="geometry">
            <mxPoint x="973" y="200" as="sourcePoint" />
            <mxPoint x="1107" y="386" as="targetPoint" />
          </mxGeometry>
        </mxCell>
        <mxCell id="iAjT5SWpcd2ESqq7upP2-340" value="" style="edgeStyle=none;endArrow=none;strokeWidth=2;entryX=-0.119;entryY=0.394;entryDx=0;entryDy=0;entryPerimeter=0;exitX=1.037;exitY=0.502;exitDx=0;exitDy=0;exitPerimeter=0;fontSize=13;fontFamily=Verdana;" parent="1" source="iAjT5SWpcd2ESqq7upP2-307" edge="1">
          <mxGeometry width="100" height="100" relative="1" as="geometry">
            <mxPoint x="1008.9999999999999" y="262.25200000000007" as="sourcePoint" />
            <mxPoint x="1116.18" y="261" as="targetPoint" />
          </mxGeometry>
        </mxCell>
      </root>
    </mxGraphModel>
  </diagram>
</mxfile>
